#!OML:ASF I:\Actors\actors\Patient Classification 2\Patient 1\Session 1\actor1.ASF
:FULLY-SPECIFIED
:DEGREES
262
root -0.0505149 18.407 6.42931 -3.55155 -14.8985 -0.421777
lowerback 4.83856 -5.06415 12.7551
upperback -3.04777 -5.36251 9.04294
thorax -6.30141 -2.95985 3.12155
lowerneck -20.7621 -6.31098 0.176161
upperneck 14.2291 -7.89095 -4.05101
head 7.58688 -4.16785 -2.3365
rclavicle -1.44516e-013 9.54166e-015
rhumerus 8.0817 -52.0565 -41.511
rradius 99.6937
rwrist -41.352
rhand -13.6678 -29.162
rfingers 7.12502
rthumb 12.4494 -58.7712
lclavicle -1.44516e-013 9.54166e-015
lhumerus -35.3654 -33.8052 80.7689
lradius 74.0805
lwrist 33.816
lhand -12.5323 -19.5235
lfingers 7.12502
lthumb 13.544 10.016
rfemur 11.5762 12.6232 12.825
rtibia -3.81667e-014
rfoot -15.1564 -8.70155
rtoes -15.1235
lfemur 3.47136 10.2967 -14.5712
ltibia 24.8851
lfoot -25.8402 9.52962
ltoes -55.5953
263
root -0.0493614 18.401 6.45158 -3.60988 -14.996 -0.406431
lowerback 4.82893 -5.09862 12.7348
upperback -3.13465 -5.39984 9.04725
thorax -6.39001 -2.9817 3.14952
lowerneck -20.8089 -6.07498 0.485731
upperneck 14.1781 -7.59401 -4.41518
head 7.55822 -4.04813 -2.46886
rclavicle 3.83654e-014 -3.18055e-015
rhumerus 8.46656 -52.415 -40.7517
rradius 100.452
rwrist -41.0362
rhand -14.0305 -28.8143
rfingers 7.12502
rthumb 12.0997 -58.4445
lclavicle 3.83654e-014 -3.18055e-015
lhumerus -35.6624 -33.7629 80.6185
lradius 74.0299
lwrist 33.7934
lhand -12.4348 -19.6966
lfingers 7.12502
lthumb 13.6379 9.83662
rfemur 11.6857 12.728 12.8207
rtibia -7.95139e-015
rfoot -15.2169 -8.72454
rtoes -15.5417
lfemur 3.57592 10.3643 -14.5882
ltibia 24.9833
lfoot -25.9732 9.58677
ltoes -55.6869
264
root -0.0480083 18.3931 6.47309 -3.68402 -15.0517 -0.401804
lowerback 4.78673 -5.13928 12.716
upperback -3.18982 -5.45571 9.06207
thorax -6.42512 -3.01034 3.18347
lowerneck -20.8781 -5.83431 0.754205
upperneck 14.1302 -7.28907 -4.72364
head 7.54063 -3.92093 -2.57721
rclavicle -3.26007e-014 5.725e-014
rhumerus 8.87646 -52.821 -40.0867
rradius 101.255
rwrist -40.7186
rhand -14.4674 -28.4836
rfingers 7.12502
rthumb 11.6784 -58.1381
lclavicle -3.26007e-014 5.725e-014
lhumerus -35.8722 -33.7736 80.4568
lradius 73.9459
lwrist 33.7736
lhand -12.363 -19.7371
lfingers 7.12502
lthumb 13.7072 9.79147
rfemur 11.8286 12.7932 12.8284
rtibia -3.18055e-015
rfoot -15.2755 -8.6913
rtoes -15.5933
lfemur 3.68954 10.3819 -14.5936
ltibia 25.0944
lfoot -26.131 9.60285
ltoes -55.7566
265
root -0.0462863 18.3834 6.49338 -3.7952 -15.1477 -0.440188
lowerback 4.78674 -5.16791 12.7317
upperback -3.18494 -5.49244 9.09656
thorax -6.41988 -3.02811 3.21675
lowerneck -21.0637 -5.58306 0.954864
upperneck 14.1164 -6.96445 -4.94491
head 7.56223 -3.77921 -2.65
rclavicle -9.54166e-015 -8.90555e-014
rhumerus 9.47622 -53.2906 -39.6868
rradius 102.088
rwrist -40.2797
rhand -14.9603 -28.136
rfingers 7.12502
rthumb 11.203 -57.8168
lclavicle -9.54166e-015 -8.90555e-014
lhumerus -35.9856 -33.7064 80.2595
lradius 73.8751
lwrist 33.7465
lhand -12.3291 -19.6416
lfingers 7.12502
lthumb 13.7399 9.88479
rfemur 12.0131 12.9005 12.8969
rtibia -2.54444e-014
rfoot -15.3023 -8.6607
rtoes -15.6459
lfemur 3.85658 10.4667 -14.5258
ltibia 25.2127
lfoot -26.2377 9.59361
ltoes -55.8645
266
root -0.0434689 18.3746 6.51398 -3.89196 -15.2579 -0.472057
lowerback 4.8303 -5.19213 12.7677
upperback -3.21191 -5.50906 9.11428
thorax -6.47761 -3.03928 3.22731
lowerneck -21.2934 -5.29226 1.20148
upperneck 14.2093 -6.59268 -5.19791
head 7.62715 -3.61623 -2.74007
rclavicle 1.88845e-014 -8.90555e-014
rhumerus 10.1146 -53.8574 -39.3548
rradius 102.902
rwrist -40.2199
rhand -14.9457 -27.9434
rfingers 7.12502
rthumb 11.2171 -57.6235
lclavicle 1.88845e-014 -8.90555e-014
lhumerus -36.2112 -33.6385 80.0633
lradius 73.8976
lwrist 33.7647
lhand -12.3041 -19.5261
lfingers 7.12502
lthumb 13.7639 9.99857
rfemur 12.1772 13.0212 12.9504
rtibia 1.59028e-014
rfoot -15.3299 -8.65756
rtoes -15.8239
lfemur 4.00856 10.5507 -14.4714
ltibia 25.331
lfoot -26.3613 9.6126
ltoes -55.9762
267
root -0.040952 18.367 6.53534 -3.97523 -15.3369 -0.412808
lowerback 4.85078 -5.20899 12.7243
upperback -3.28308 -5.52155 9.10254
thorax -6.56435 -3.04774 3.24878
lowerneck -21.4829 -4.96638 1.52795
upperneck 14.3551 -6.17412 -5.57732
head 7.7002 -3.44034 -2.87938
rclavicle -5.02925e-014 1.01778e-013
rhumerus 10.7217 -54.6753 -38.9836
rradius 103.803
rwrist -41.1097
rhand -14.0174 -28.1678
rfingers 7.12502
rthumb 12.1124 -57.7972
lclavicle -5.02925e-014 1.01778e-013
lhumerus -36.5214 -33.6599 79.906
lradius 73.922
lwrist 33.8389
lhand -12.2879 -19.4831
lfingers 7.12502
lthumb 13.7795 10.0405
rfemur 12.3121 13.1142 12.8954
rtibia -1.59028e-015
rfoot -15.3533 -8.67287
rtoes -16.2034
lfemur 4.11369 10.596 -14.5247
ltibia 25.4556
lfoot -26.5353 9.58221
ltoes -55.9245
268
root -0.0392287 18.3591 6.5573 -4.05972 -15.4282 -0.328962
lowerback 4.81315 -5.21587 12.644
upperback -3.33239 -5.53843 9.09632
thorax -6.58899 -3.05501 3.28678
lowerneck -21.5955 -4.59601 1.95836
upperneck 14.4236 -5.70481 -6.08586
head 7.73308 -3.24823 -3.06734
rclavicle 4.45278e-014 -4.77083e-014
rhumerus 10.957 -54.7466 -38.3663
rradius 104.455
rwrist -39.0028
rhand -15.6487 -27.3312
rfingers 7.12502
rthumb 10.539 -57.047
lclavicle 4.45278e-014 -4.77083e-014
lhumerus -36.7511 -33.6485 79.7644
lradius 73.8272
lwrist 33.81
lhand -12.2854 -19.4682
lfingers 7.12502
lthumb 13.782 10.0553
rfemur 12.4345 13.2203 12.8182
rtibia -2.38542e-014
rfoot -15.3647 -8.68727
rtoes -16.4606
lfemur 4.21653 10.6693 -14.5956
ltibia 25.5795
lfoot -26.7118 9.5297
ltoes -55.8626
269
root -0.0365818 18.3511 6.57908 -4.1052 -15.5186 -0.327469
lowerback 4.72531 -5.22893 12.6765
upperback -3.35585 -5.56784 9.09243
thorax -6.56907 -3.07114 3.26191
lowerneck -21.6743 -4.20487 2.33475
upperneck 14.4602 -5.2219 -6.4276
head 7.76134 -3.03445 -3.18809
rclavicle -5.60573e-014 -6.36111e-014
rhumerus 11.4154 -55.224 -38.0301
rradius 105.264
rwrist -38.4929
rhand -16.0668 -26.945
rfingers 7.12502
rthumb 10.1357 -56.6808
lclavicle -5.60573e-014 -6.36111e-014
lhumerus -36.9121 -33.6331 79.5613
lradius 73.7025
lwrist 33.7199
lhand -12.3851 -19.498
lfingers 7.12502
lthumb 13.6859 10.0319
rfemur 12.525 13.317 12.8208
rtibia -2.8625e-014
rfoot -15.4086 -8.664
rtoes -16.3066
lfemur 4.30923 10.7694 -14.5684
ltibia 25.6968
lfoot -26.8813 9.37547
ltoes -55.8004
270
root -0.0328084 18.3435 6.60186 -4.14636 -15.5627 -0.308214
lowerback 4.60749 -5.24946 12.7162
upperback -3.38184 -5.61239 9.07725
thorax -6.53724 -3.0949 3.21984
lowerneck -21.7668 -3.78639 2.6201
upperneck 14.5609 -4.69524 -6.64375
head 7.82498 -2.79183 -3.24994
rclavicle 1.86858e-014 9.85972e-014
rhumerus 12.0424 -55.9519 -37.8907
rradius 106.115
rwrist -39.0228
rhand -15.5353 -26.8984
rfingers 7.12502
rthumb 10.6485 -56.6086
lclavicle 1.86858e-014 9.85972e-014
lhumerus -37.1007 -33.6153 79.3672
lradius 73.64
lwrist 33.7144
lhand -12.5271 -19.6061
lfingers 7.12502
lthumb 13.549 9.93309
rfemur 12.6242 13.3693 12.7959
rtibia 4.77083e-015
rfoot -15.4959 -8.63038
rtoes -16.3499
lfemur 4.39178 10.8329 -14.5658
ltibia 25.8243
lfoot -27.0766 9.15686
ltoes -55.5624
271
root -0.0285804 18.3351 6.62485 -4.20896 -15.6123 -0.246614
lowerback 4.54388 -5.25951 12.6948
upperback -3.4417 -5.63198 9.07136
thorax -6.56503 -3.10603 3.22606
lowerneck -21.7775 -3.30697 3.02012
upperneck 14.6451 -4.08339 -7.05819
head 7.87033 -2.52297 -3.38371
rclavicle -2.22639e-014 1.11319e-013
rhumerus 12.8949 -56.4485 -38.0147
rradius 106.727
rwrist -38.225
rhand -15.7401 -26.6244
rfingers 7.12502
rthumb 10.4509 -56.3446
lclavicle -2.22639e-014 1.11319e-013
lhumerus -37.428 -33.5542 79.2758
lradius 73.6575
lwrist 33.7527
lhand -12.4814 -19.6759
lfingers 7.12502
lthumb 13.593 9.86038
rfemur 12.7404 13.4322 12.7275
rtibia -6.36111e-015
rfoot -15.5541 -8.64694
rtoes -16.6572
lfemur 4.47109 10.9223 -14.6163
ltibia 25.9663
lfoot -27.2254 9.03685
ltoes -55.4954
272
root -0.0241755 18.3251 6.64481 -4.29053 -15.6555 -0.240366
lowerback 4.57344 -5.26234 12.7162
upperback -3.50287 -5.61952 9.07411
thorax -6.6508 -3.1041 3.22653
lowerneck -21.7354 -2.83184 3.52227
upperneck 14.6629 -3.48459 -7.60636
head 7.88466 -2.26791 -3.57785
rclavicle 3.02153e-014 -6.67916e-014
rhumerus 14.0308 -56.9163 -38.4135
rradius 107.122
rwrist -36.7947
rhand -16.3885 -26.1766
rfingers 7.12502
rthumb 9.82532 -55.9274
lclavicle 3.02153e-014 -6.67916e-014
lhumerus -37.8199 -33.5415 79.2026
lradius 73.7429
lwrist 33.7956
lhand -12.3243 -19.6841
lfingers 7.12502
lthumb 13.7445 9.84195
rfemur 12.8845 13.4888 12.7231
rtibia -1.74931e-014
rfoot -15.5802 -8.66675
rtoes -16.8275
lfemur 4.55117 11.0543 -14.5994
ltibia 26.1123
lfoot -27.2257 8.96509
ltoes -55.6043
